<svg xmlns="http://www.w3.org/2000/svg" viewBox="0 0 32 32" width="32" height="32">
  <defs>
    <radialGradient id="spiderGradient" cx="50%" cy="50%" r="50%">
      <stop offset="0%" style="stop-color:#dc2626;stop-opacity:1" />
      <stop offset="100%" style="stop-color:#991b1b;stop-opacity:1" />
    </radialGradient>
  </defs>
  
  <!-- Background Circle -->
  <circle cx="16" cy="16" r="15" fill="url(#spiderGradient)" stroke="#374151" stroke-width="2"/>
  
  <!-- Spider Web Pattern -->
  <g stroke="#ffffff" stroke-width="0.5" opacity="0.3" fill="none">
    <!-- Radial lines -->
    <line x1="16" y1="2" x2="16" y2="30"/>
    <line x1="2" y1="16" x2="30" y2="16"/>
    <line x1="6" y1="6" x2="26" y2="26"/>
    <line x1="26" y1="6" x2="6" y2="26"/>
    
    <!-- Concentric circles -->
    <circle cx="16" cy="16" r="6"/>
    <circle cx="16" cy="16" r="10"/>
    <circle cx="16" cy="16" r="14"/>
  </g>
  
  <!-- Spider Symbol -->
  <g fill="#ffffff">
    <!-- Spider body -->
    <ellipse cx="16" cy="16" rx="2" ry="4"/>
    
    <!-- Spider legs -->
    <g stroke="#ffffff" stroke-width="1" fill="none">
      <!-- Left legs -->
      <path d="M14 12 L8 8"/>
      <path d="M14 14 L6 12"/>
      <path d="M14 18 L6 20"/>
      <path d="M14 20 L8 24"/>
      
      <!-- Right legs -->
      <path d="M18 12 L24 8"/>
      <path d="M18 14 L26 12"/>
      <path d="M18 18 L26 20"/>
      <path d="M18 20 L24 24"/>
    </g>
  </g>
</svg>
